<mxfile host="app.diagrams.net" modified="2023-04-30T19:19:31.689Z" agent="Mozilla/5.0 (Windows NT 10.0; Win64; x64) AppleWebKit/537.36 (KHTML, like Gecko) Chrome/112.0.0.0 Safari/537.36 OPR/98.0.0.0" etag="YOlhySSsoxLV2knPgmuB" version="21.2.3">
  <diagram id="xEYIvZNUubaOumvntlrk" name="Page-1">
    <mxGraphModel dx="1394" dy="766" grid="1" gridSize="10" guides="1" tooltips="1" connect="1" arrows="1" fold="1" page="1" pageScale="1" pageWidth="850" pageHeight="1100" math="0" shadow="0">
      <root>
        <mxCell id="0" />
        <mxCell id="1" parent="0" />
        <mxCell id="yjBnvlBu81LDm7IpL97z-1" value="Postgres" style="shape=cylinder3;whiteSpace=wrap;html=1;boundedLbl=1;backgroundOutline=1;size=15;fontSize=17;fontStyle=1;fillColor=#dae8fc;strokeColor=#6c8ebf;" parent="1" vertex="1">
          <mxGeometry x="370" y="840" width="160" height="130" as="geometry" />
        </mxCell>
        <mxCell id="yjBnvlBu81LDm7IpL97z-3" value="tomorrow.io &lt;br&gt;forecast data" style="ellipse;shape=cloud;whiteSpace=wrap;html=1;fontSize=16;fontStyle=1;fillColor=#d5e8d4;strokeColor=#82b366;" parent="1" vertex="1">
          <mxGeometry x="20" y="480" width="240" height="160" as="geometry" />
        </mxCell>
        <mxCell id="yjBnvlBu81LDm7IpL97z-4" value="WUnderground &lt;br style=&quot;font-size: 16px;&quot;&gt;Current Conditions&lt;br style=&quot;font-size: 16px;&quot;&gt;API" style="ellipse;shape=cloud;whiteSpace=wrap;html=1;fontSize=16;fontStyle=1;fillColor=#d5e8d4;strokeColor=#82b366;" parent="1" vertex="1">
          <mxGeometry x="25" y="640" width="230" height="120" as="geometry" />
        </mxCell>
        <mxCell id="1qBqqz7iuCxBIrSzzT6B-2" value="Rusty Forecast API" style="rounded=0;whiteSpace=wrap;html=1;fontSize=16;fontStyle=1" vertex="1" parent="1">
          <mxGeometry x="365" y="600" width="170" height="60" as="geometry" />
        </mxCell>
        <mxCell id="1qBqqz7iuCxBIrSzzT6B-4" value="" style="endArrow=classic;html=1;rounded=0;exitX=0.875;exitY=0.5;exitDx=0;exitDy=0;exitPerimeter=0;entryX=0;entryY=0.25;entryDx=0;entryDy=0;strokeWidth=2;" edge="1" parent="1" source="yjBnvlBu81LDm7IpL97z-3" target="1qBqqz7iuCxBIrSzzT6B-2">
          <mxGeometry width="50" height="50" relative="1" as="geometry">
            <mxPoint x="310" y="420" as="sourcePoint" />
            <mxPoint x="360" y="370" as="targetPoint" />
          </mxGeometry>
        </mxCell>
        <mxCell id="1qBqqz7iuCxBIrSzzT6B-6" value="" style="endArrow=classic;html=1;rounded=0;entryX=0;entryY=0.5;entryDx=0;entryDy=0;exitX=0.875;exitY=0.5;exitDx=0;exitDy=0;exitPerimeter=0;strokeWidth=2;" edge="1" parent="1" source="yjBnvlBu81LDm7IpL97z-4" target="1qBqqz7iuCxBIrSzzT6B-2">
          <mxGeometry width="50" height="50" relative="1" as="geometry">
            <mxPoint x="310" y="420" as="sourcePoint" />
            <mxPoint x="360" y="370" as="targetPoint" />
          </mxGeometry>
        </mxCell>
        <mxCell id="1qBqqz7iuCxBIrSzzT6B-7" value="" style="endArrow=classic;startArrow=classic;html=1;rounded=0;exitX=0.5;exitY=0;exitDx=0;exitDy=0;exitPerimeter=0;entryX=0.5;entryY=1;entryDx=0;entryDy=0;strokeWidth=2;" edge="1" parent="1" source="yjBnvlBu81LDm7IpL97z-1" target="1qBqqz7iuCxBIrSzzT6B-2">
          <mxGeometry width="50" height="50" relative="1" as="geometry">
            <mxPoint x="310" y="410" as="sourcePoint" />
            <mxPoint x="360" y="360" as="targetPoint" />
          </mxGeometry>
        </mxCell>
        <mxCell id="1qBqqz7iuCxBIrSzzT6B-17" value="Cached Data" style="swimlane;fontStyle=1;childLayout=stackLayout;horizontal=1;startSize=30;horizontalStack=0;resizeParent=1;resizeParentMax=0;resizeLast=0;collapsible=1;marginBottom=0;whiteSpace=wrap;html=1;fontSize=14;" vertex="1" parent="1">
          <mxGeometry x="200" y="870" width="140" height="90" as="geometry" />
        </mxCell>
        <mxCell id="1qBqqz7iuCxBIrSzzT6B-18" value="Hourly Weather data" style="text;strokeColor=none;fillColor=none;align=left;verticalAlign=middle;spacingLeft=4;spacingRight=4;overflow=hidden;points=[[0,0.5],[1,0.5]];portConstraint=eastwest;rotatable=0;whiteSpace=wrap;html=1;fontSize=14;" vertex="1" parent="1qBqqz7iuCxBIrSzzT6B-17">
          <mxGeometry y="30" width="140" height="30" as="geometry" />
        </mxCell>
        <mxCell id="1qBqqz7iuCxBIrSzzT6B-19" value="Daily Weather data" style="text;strokeColor=none;fillColor=none;align=left;verticalAlign=middle;spacingLeft=4;spacingRight=4;overflow=hidden;points=[[0,0.5],[1,0.5]];portConstraint=eastwest;rotatable=0;whiteSpace=wrap;html=1;fontSize=14;" vertex="1" parent="1qBqqz7iuCxBIrSzzT6B-17">
          <mxGeometry y="60" width="140" height="30" as="geometry" />
        </mxCell>
        <mxCell id="1qBqqz7iuCxBIrSzzT6B-21" value="Local Real Feel" style="text;html=1;strokeColor=none;fillColor=none;align=center;verticalAlign=middle;whiteSpace=wrap;rounded=0;fontSize=14;fontStyle=1" vertex="1" parent="1">
          <mxGeometry x="80" y="760" width="120" height="30" as="geometry" />
        </mxCell>
        <mxCell id="1qBqqz7iuCxBIrSzzT6B-22" value="Forecast data" style="text;html=1;strokeColor=none;fillColor=none;align=center;verticalAlign=middle;whiteSpace=wrap;rounded=0;fontStyle=1;fontSize=13;" vertex="1" parent="1">
          <mxGeometry x="90" y="460" width="90" height="30" as="geometry" />
        </mxCell>
        <mxCell id="1qBqqz7iuCxBIrSzzT6B-29" value="Jeff Byrd" style="text;html=1;strokeColor=none;fillColor=none;align=center;verticalAlign=middle;whiteSpace=wrap;rounded=0;" vertex="1" parent="1">
          <mxGeometry x="940" y="90" width="60" height="30" as="geometry" />
        </mxCell>
        <mxCell id="1qBqqz7iuCxBIrSzzT6B-30" value="" style="group" vertex="1" connectable="0" parent="1">
          <mxGeometry x="30" y="260" width="320" height="130" as="geometry" />
        </mxCell>
        <mxCell id="1qBqqz7iuCxBIrSzzT6B-3" value="" style="rounded=0;whiteSpace=wrap;html=1;" vertex="1" parent="1qBqqz7iuCxBIrSzzT6B-30">
          <mxGeometry width="320" height="130" as="geometry" />
        </mxCell>
        <mxCell id="1qBqqz7iuCxBIrSzzT6B-1" value=".NET Core Razor Pages" style="rounded=0;whiteSpace=wrap;html=1;fontSize=16;fontStyle=1" vertex="1" parent="1qBqqz7iuCxBIrSzzT6B-30">
          <mxGeometry x="10" y="40" width="220" height="50" as="geometry" />
        </mxCell>
        <mxCell id="1qBqqz7iuCxBIrSzzT6B-10" value="HouseHub (Razor) Solution" style="text;html=1;strokeColor=none;fillColor=none;align=center;verticalAlign=middle;whiteSpace=wrap;rounded=0;fontStyle=1" vertex="1" parent="1qBqqz7iuCxBIrSzzT6B-30">
          <mxGeometry x="110" y="10" width="205" height="30" as="geometry" />
        </mxCell>
        <mxCell id="1qBqqz7iuCxBIrSzzT6B-31" value="" style="endArrow=classic;html=1;rounded=0;exitX=0.5;exitY=0;exitDx=0;exitDy=0;entryX=0.5;entryY=1;entryDx=0;entryDy=0;" edge="1" parent="1" source="1qBqqz7iuCxBIrSzzT6B-2" target="1qBqqz7iuCxBIrSzzT6B-3">
          <mxGeometry width="50" height="50" relative="1" as="geometry">
            <mxPoint x="310" y="550" as="sourcePoint" />
            <mxPoint x="360" y="500" as="targetPoint" />
          </mxGeometry>
        </mxCell>
        <mxCell id="1qBqqz7iuCxBIrSzzT6B-32" value="React Front-End" style="rounded=0;whiteSpace=wrap;html=1;dashed=1;" vertex="1" parent="1">
          <mxGeometry x="345" y="420" width="190" height="50" as="geometry" />
        </mxCell>
        <mxCell id="1qBqqz7iuCxBIrSzzT6B-33" value="Vue.js Front-End" style="rounded=0;whiteSpace=wrap;html=1;dashed=1;" vertex="1" parent="1">
          <mxGeometry x="550" y="410" width="190" height="50" as="geometry" />
        </mxCell>
        <mxCell id="1qBqqz7iuCxBIrSzzT6B-34" value="" style="endArrow=classic;html=1;rounded=0;entryX=0.453;entryY=1.02;entryDx=0;entryDy=0;entryPerimeter=0;" edge="1" parent="1" target="1qBqqz7iuCxBIrSzzT6B-32">
          <mxGeometry width="50" height="50" relative="1" as="geometry">
            <mxPoint x="450" y="600" as="sourcePoint" />
            <mxPoint x="360" y="500" as="targetPoint" />
          </mxGeometry>
        </mxCell>
        <mxCell id="1qBqqz7iuCxBIrSzzT6B-35" value="" style="endArrow=classic;html=1;rounded=0;entryX=0.5;entryY=1;entryDx=0;entryDy=0;exitX=0.5;exitY=0;exitDx=0;exitDy=0;" edge="1" parent="1" source="1qBqqz7iuCxBIrSzzT6B-2" target="1qBqqz7iuCxBIrSzzT6B-33">
          <mxGeometry width="50" height="50" relative="1" as="geometry">
            <mxPoint x="460" y="610" as="sourcePoint" />
            <mxPoint x="476" y="511" as="targetPoint" />
          </mxGeometry>
        </mxCell>
        <mxCell id="1qBqqz7iuCxBIrSzzT6B-36" value="Blazor Front-End" style="rounded=0;whiteSpace=wrap;html=1;dashed=1;" vertex="1" parent="1">
          <mxGeometry x="660" y="500" width="190" height="50" as="geometry" />
        </mxCell>
        <mxCell id="1qBqqz7iuCxBIrSzzT6B-37" value="" style="endArrow=classic;html=1;rounded=0;entryX=0;entryY=0.5;entryDx=0;entryDy=0;exitX=0.5;exitY=0;exitDx=0;exitDy=0;" edge="1" parent="1" target="1qBqqz7iuCxBIrSzzT6B-36" source="1qBqqz7iuCxBIrSzzT6B-2">
          <mxGeometry width="50" height="50" relative="1" as="geometry">
            <mxPoint x="450" y="620" as="sourcePoint" />
            <mxPoint x="586" y="601" as="targetPoint" />
          </mxGeometry>
        </mxCell>
      </root>
    </mxGraphModel>
  </diagram>
</mxfile>
